<svg width="128" height="128" viewBox="0 0 128 128" fill="none" xmlns="http://www.w3.org/2000/svg" role="img" aria-labelledby="title desc">
  <title id="title">Yusually logo</title>
  <desc id="desc">An angular deer-line emblem inside a circle, tuned for the Yusually dark website.</desc>
  <defs>
    <linearGradient id="copper" x1="31" y1="20" x2="100" y2="110" gradientUnits="userSpaceOnUse">
      <stop stop-color="#F0A05A"/>
      <stop offset="0.52" stop-color="#D4763A"/>
      <stop offset="1" stop-color="#B95C2A"/>
    </linearGradient>
    <filter id="emberGlow" x="-20%" y="-20%" width="140%" height="140%" color-interpolation-filters="sRGB">
      <feDropShadow dx="0" dy="0" stdDeviation="2.5" flood-color="#D4763A" flood-opacity="0.32"/>
    </filter>
  </defs>

  <g filter="url(#emberGlow)">
    <circle cx="64" cy="64" r="46" stroke="url(#copper)" stroke-width="5"/>
    <path d="M46 35V47L58 59M82 35V47L70 59M55 41V55M73 41V55M58 59H70"
      stroke="url(#copper)" stroke-width="5" stroke-linecap="square" stroke-linejoin="miter"/>
    <path d="M58 59L45 59L52 69H61L54 83L47 103M70 59L88 70L83 82H70L79 103L96 112"
      stroke="url(#copper)" stroke-width="5" stroke-linecap="square" stroke-linejoin="miter"/>
    <path d="M47 103L31 109M79 103L47 103M58 59L70 59"
      stroke="url(#copper)" stroke-width="5" stroke-linecap="square" stroke-linejoin="miter"/>
  </g>
</svg>
